<mxfile host="app.diagrams.net" modified="2024-05-30T02:34:57.533Z" agent="Mozilla/5.0 (Windows NT 10.0; Win64; x64) AppleWebKit/537.36 (KHTML, like Gecko) Chrome/125.0.0.0 Safari/537.36" etag="dZsOP2m7gI4lbmuTQF2I" version="24.4.9" type="github">
  <diagram name="EXERCISE-1" id="jf3Z4JMMC97Lukkn_Zwi">
    <mxGraphModel dx="1050" dy="653" grid="1" gridSize="10" guides="1" tooltips="1" connect="1" arrows="1" fold="1" page="1" pageScale="1" pageWidth="827" pageHeight="1169" math="0" shadow="0">
      <root>
        <mxCell id="0" />
        <mxCell id="1" parent="0" />
        <mxCell id="UHf_vCGS97gFJlzs05_9-1" value="" style="edgeStyle=orthogonalEdgeStyle;rounded=0;orthogonalLoop=1;jettySize=auto;html=1;" edge="1" parent="1" source="UHf_vCGS97gFJlzs05_9-2" target="UHf_vCGS97gFJlzs05_9-4">
          <mxGeometry relative="1" as="geometry" />
        </mxCell>
        <mxCell id="UHf_vCGS97gFJlzs05_9-2" value="&amp;nbsp;INICIO" style="rounded=1;whiteSpace=wrap;html=1;" vertex="1" parent="1">
          <mxGeometry x="354" y="35" width="120" height="60" as="geometry" />
        </mxCell>
        <mxCell id="UHf_vCGS97gFJlzs05_9-3" value="" style="edgeStyle=orthogonalEdgeStyle;rounded=0;orthogonalLoop=1;jettySize=auto;html=1;" edge="1" parent="1" source="UHf_vCGS97gFJlzs05_9-4" target="UHf_vCGS97gFJlzs05_9-6">
          <mxGeometry relative="1" as="geometry" />
        </mxCell>
        <mxCell id="UHf_vCGS97gFJlzs05_9-4" value="s1" style="shape=parallelogram;perimeter=parallelogramPerimeter;whiteSpace=wrap;html=1;fixedSize=1;" vertex="1" parent="1">
          <mxGeometry x="354" y="130" width="120" height="30" as="geometry" />
        </mxCell>
        <mxCell id="UHf_vCGS97gFJlzs05_9-5" value="" style="edgeStyle=orthogonalEdgeStyle;rounded=0;orthogonalLoop=1;jettySize=auto;html=1;" edge="1" parent="1" source="UHf_vCGS97gFJlzs05_9-6" target="UHf_vCGS97gFJlzs05_9-8">
          <mxGeometry relative="1" as="geometry" />
        </mxCell>
        <mxCell id="UHf_vCGS97gFJlzs05_9-6" value="s2" style="shape=parallelogram;perimeter=parallelogramPerimeter;whiteSpace=wrap;html=1;fixedSize=1;" vertex="1" parent="1">
          <mxGeometry x="354" y="210" width="120" height="30" as="geometry" />
        </mxCell>
        <mxCell id="UHf_vCGS97gFJlzs05_9-7" value="" style="edgeStyle=orthogonalEdgeStyle;rounded=0;orthogonalLoop=1;jettySize=auto;html=1;" edge="1" parent="1" source="UHf_vCGS97gFJlzs05_9-8" target="UHf_vCGS97gFJlzs05_9-11">
          <mxGeometry relative="1" as="geometry" />
        </mxCell>
        <mxCell id="UHf_vCGS97gFJlzs05_9-8" value="s3" style="shape=parallelogram;perimeter=parallelogramPerimeter;whiteSpace=wrap;html=1;fixedSize=1;" vertex="1" parent="1">
          <mxGeometry x="354" y="280" width="120" height="30" as="geometry" />
        </mxCell>
        <mxCell id="UHf_vCGS97gFJlzs05_9-9" value="" style="edgeStyle=orthogonalEdgeStyle;rounded=0;orthogonalLoop=1;jettySize=auto;html=1;" edge="1" parent="1" source="UHf_vCGS97gFJlzs05_9-11" target="UHf_vCGS97gFJlzs05_9-13">
          <mxGeometry relative="1" as="geometry" />
        </mxCell>
        <mxCell id="UHf_vCGS97gFJlzs05_9-10" value="" style="edgeStyle=orthogonalEdgeStyle;rounded=0;orthogonalLoop=1;jettySize=auto;html=1;" edge="1" parent="1" source="UHf_vCGS97gFJlzs05_9-11" target="UHf_vCGS97gFJlzs05_9-16">
          <mxGeometry relative="1" as="geometry" />
        </mxCell>
        <mxCell id="UHf_vCGS97gFJlzs05_9-11" value="s1 menor que s2 y s3?" style="rhombus;whiteSpace=wrap;html=1;fillColor=#fff2cc;strokeColor=#d6b656;" vertex="1" parent="1">
          <mxGeometry x="341" y="370" width="146" height="105" as="geometry" />
        </mxCell>
        <mxCell id="UHf_vCGS97gFJlzs05_9-12" value="" style="edgeStyle=orthogonalEdgeStyle;rounded=0;orthogonalLoop=1;jettySize=auto;html=1;" edge="1" parent="1" source="UHf_vCGS97gFJlzs05_9-13" target="UHf_vCGS97gFJlzs05_9-25">
          <mxGeometry relative="1" as="geometry" />
        </mxCell>
        <mxCell id="UHf_vCGS97gFJlzs05_9-13" value="s1" style="whiteSpace=wrap;html=1;" vertex="1" parent="1">
          <mxGeometry x="540" y="406.25" width="68" height="32.5" as="geometry" />
        </mxCell>
        <mxCell id="UHf_vCGS97gFJlzs05_9-14" value="" style="edgeStyle=orthogonalEdgeStyle;rounded=0;orthogonalLoop=1;jettySize=auto;html=1;" edge="1" parent="1" source="UHf_vCGS97gFJlzs05_9-16" target="UHf_vCGS97gFJlzs05_9-18">
          <mxGeometry relative="1" as="geometry" />
        </mxCell>
        <mxCell id="UHf_vCGS97gFJlzs05_9-15" value="" style="edgeStyle=orthogonalEdgeStyle;rounded=0;orthogonalLoop=1;jettySize=auto;html=1;" edge="1" parent="1" source="UHf_vCGS97gFJlzs05_9-16" target="UHf_vCGS97gFJlzs05_9-21">
          <mxGeometry relative="1" as="geometry" />
        </mxCell>
        <mxCell id="UHf_vCGS97gFJlzs05_9-16" value="s2 menor que s1 y s3?" style="rhombus;whiteSpace=wrap;html=1;fillColor=#fff2cc;strokeColor=#d6b656;" vertex="1" parent="1">
          <mxGeometry x="341" y="555" width="146" height="105" as="geometry" />
        </mxCell>
        <mxCell id="UHf_vCGS97gFJlzs05_9-17" value="" style="edgeStyle=orthogonalEdgeStyle;rounded=0;orthogonalLoop=1;jettySize=auto;html=1;" edge="1" parent="1" source="UHf_vCGS97gFJlzs05_9-18" target="UHf_vCGS97gFJlzs05_9-26">
          <mxGeometry relative="1" as="geometry" />
        </mxCell>
        <mxCell id="UHf_vCGS97gFJlzs05_9-18" value="s2" style="whiteSpace=wrap;html=1;" vertex="1" parent="1">
          <mxGeometry x="540" y="593.75" width="68" height="27.5" as="geometry" />
        </mxCell>
        <mxCell id="UHf_vCGS97gFJlzs05_9-19" value="" style="edgeStyle=orthogonalEdgeStyle;rounded=0;orthogonalLoop=1;jettySize=auto;html=1;" edge="1" parent="1" source="UHf_vCGS97gFJlzs05_9-21" target="UHf_vCGS97gFJlzs05_9-23">
          <mxGeometry relative="1" as="geometry" />
        </mxCell>
        <mxCell id="UHf_vCGS97gFJlzs05_9-20" value="" style="edgeStyle=orthogonalEdgeStyle;rounded=0;orthogonalLoop=1;jettySize=auto;html=1;" edge="1" parent="1" source="UHf_vCGS97gFJlzs05_9-21" target="UHf_vCGS97gFJlzs05_9-24">
          <mxGeometry relative="1" as="geometry" />
        </mxCell>
        <mxCell id="UHf_vCGS97gFJlzs05_9-21" value="s3 menor que s1 y s2?" style="rhombus;whiteSpace=wrap;html=1;fillColor=#fff2cc;strokeColor=#d6b656;" vertex="1" parent="1">
          <mxGeometry x="341" y="740" width="146" height="105" as="geometry" />
        </mxCell>
        <mxCell id="UHf_vCGS97gFJlzs05_9-22" value="" style="edgeStyle=orthogonalEdgeStyle;rounded=0;orthogonalLoop=1;jettySize=auto;html=1;" edge="1" parent="1" source="UHf_vCGS97gFJlzs05_9-23" target="UHf_vCGS97gFJlzs05_9-27">
          <mxGeometry relative="1" as="geometry" />
        </mxCell>
        <mxCell id="UHf_vCGS97gFJlzs05_9-23" value="s3" style="whiteSpace=wrap;html=1;" vertex="1" parent="1">
          <mxGeometry x="540" y="780" width="68" height="23.75" as="geometry" />
        </mxCell>
        <mxCell id="UHf_vCGS97gFJlzs05_9-24" value="&lt;font style=&quot;vertical-align: inherit;&quot;&gt;&lt;font style=&quot;vertical-align: inherit;&quot;&gt;FIN&lt;/font&gt;&lt;/font&gt;" style="rounded=1;whiteSpace=wrap;html=1;" vertex="1" parent="1">
          <mxGeometry x="366" y="920" width="96" height="40" as="geometry" />
        </mxCell>
        <mxCell id="UHf_vCGS97gFJlzs05_9-25" value="FIN" style="rounded=1;whiteSpace=wrap;html=1;" vertex="1" parent="1">
          <mxGeometry x="660" y="406.25" width="76" height="32.5" as="geometry" />
        </mxCell>
        <mxCell id="UHf_vCGS97gFJlzs05_9-26" value="FIN" style="rounded=1;whiteSpace=wrap;html=1;" vertex="1" parent="1">
          <mxGeometry x="661" y="591.25" width="74" height="32.5" as="geometry" />
        </mxCell>
        <mxCell id="UHf_vCGS97gFJlzs05_9-27" value="FIN" style="rounded=1;whiteSpace=wrap;html=1;" vertex="1" parent="1">
          <mxGeometry x="665" y="776.56" width="66" height="31.88" as="geometry" />
        </mxCell>
        <mxCell id="UHf_vCGS97gFJlzs05_9-28" value="SI" style="text;strokeColor=none;align=center;fillColor=none;html=1;verticalAlign=middle;whiteSpace=wrap;rounded=0;" vertex="1" parent="1">
          <mxGeometry x="474" y="580" width="60" height="30" as="geometry" />
        </mxCell>
        <mxCell id="UHf_vCGS97gFJlzs05_9-29" value="SI" style="text;strokeColor=none;align=center;fillColor=none;html=1;verticalAlign=middle;whiteSpace=wrap;rounded=0;" vertex="1" parent="1">
          <mxGeometry x="474" y="390" width="60" height="30" as="geometry" />
        </mxCell>
        <mxCell id="UHf_vCGS97gFJlzs05_9-30" value="SI" style="text;strokeColor=none;align=center;fillColor=none;html=1;verticalAlign=middle;whiteSpace=wrap;rounded=0;" vertex="1" parent="1">
          <mxGeometry x="480" y="760" width="60" height="30" as="geometry" />
        </mxCell>
        <mxCell id="UHf_vCGS97gFJlzs05_9-31" value="NO" style="text;strokeColor=none;align=center;fillColor=none;html=1;verticalAlign=middle;whiteSpace=wrap;rounded=0;" vertex="1" parent="1">
          <mxGeometry x="414" y="860" width="60" height="30" as="geometry" />
        </mxCell>
        <mxCell id="UHf_vCGS97gFJlzs05_9-32" value="NO" style="text;strokeColor=none;align=center;fillColor=none;html=1;verticalAlign=middle;whiteSpace=wrap;rounded=0;" vertex="1" parent="1">
          <mxGeometry x="414" y="680" width="60" height="30" as="geometry" />
        </mxCell>
        <mxCell id="UHf_vCGS97gFJlzs05_9-33" value="NO" style="text;strokeColor=none;align=center;fillColor=none;html=1;verticalAlign=middle;whiteSpace=wrap;rounded=0;" vertex="1" parent="1">
          <mxGeometry x="414" y="490" width="60" height="30" as="geometry" />
        </mxCell>
        <mxCell id="UHf_vCGS97gFJlzs05_9-34" value="EXERCISE 1" style="text;html=1;align=center;verticalAlign=middle;resizable=0;points=[];autosize=1;strokeColor=none;fillColor=none;" vertex="1" parent="1">
          <mxGeometry x="369" y="5" width="90" height="30" as="geometry" />
        </mxCell>
      </root>
    </mxGraphModel>
  </diagram>
</mxfile>
